<?xml version="1.0" encoding="utf-8"?>
<!-- Generator: Adobe Illustrator 20.0.0, SVG Export Plug-In . SVG Version: 6.00 Build 0)  -->
<svg version="1.1" id="Layer_1" xmlns="http://www.w3.org/2000/svg" xmlns:xlink="http://www.w3.org/1999/xlink" x="0px" y="0px"
	 viewBox="0 0 260.7 246.2" style="enable-background:new 0 0 260.7 246.2;" xml:space="preserve">
<style type="text/css">
	.st0{fill:#FFFFFF;}
	.st1{fill:none;enable-background:new    ;}
</style>
<g>
	<polygon id="XMLID_14823_" class="st0" points="153.2,80.9 182.6,88.2 167.2,91.9 171.4,99.5 218.2,88.5 147,70.7 146.2,74.2 
		141.6,66.7 167.7,51.2 159.3,64.6 167.7,67 193.1,26.2 130.1,63.9 143.3,85.8 140.9,95.6 131.9,101 122.9,98.8 117.3,89.5 
		130.7,35.6 134.4,51.3 141.9,46.8 131,0 111.2,79.4 93.7,50.6 107.4,59.1 109.6,50.6 68.7,25.3 108.3,90.9 107.3,94.9 78.1,87.6 
		93.8,84 89.4,76.4 42.5,87.2 117.5,106 119.1,108.8 93.2,124.5 101.6,110.8 93.1,108.6 67.8,149.5 133.2,110 137.1,111 130,140.1 
		126.3,124.4 118.7,129 129.7,175.7 148.2,101 151.4,99.1 150.6,97.8 167.1,125 153.4,116.6 151.2,125.1 192,150.4 152.3,84.4 	"/>
</g>
<g>
	<g id="XMLID_14800_">
		<g>
			<path class="st0" d="M7.1,237.9c0.4,0.7,0.9,1.3,1.5,1.7c0.6,0.4,1.3,0.8,2.2,1c0.8,0.2,1.7,0.3,2.6,0.3c0.6,0,1.2,0,1.9-0.2
				c0.7-0.1,1.3-0.3,1.9-0.6c0.6-0.3,1.1-0.7,1.5-1.2c0.4-0.5,0.6-1.1,0.6-1.9c0-0.8-0.3-1.5-0.8-2c-0.5-0.5-1.2-0.9-2.1-1.3
				c-0.9-0.3-1.8-0.6-2.9-0.9c-1.1-0.3-2.2-0.5-3.3-0.9c-1.1-0.3-2.3-0.6-3.3-1.1c-1.1-0.4-2.1-0.9-2.9-1.6C3,228.8,2.4,228,1.8,227
				c-0.5-1-0.8-2.2-0.8-3.6c0-1.6,0.3-2.9,1-4.1c0.7-1.2,1.5-2.1,2.6-2.9c1.1-0.8,2.3-1.3,3.7-1.7c1.4-0.4,2.7-0.6,4.1-0.6
				c1.6,0,3.1,0.2,4.6,0.5c1.5,0.4,2.8,0.9,3.9,1.7c1.1,0.8,2,1.8,2.7,3.1c0.7,1.2,1,2.8,1,4.5h-6.5c-0.1-0.9-0.3-1.7-0.6-2.3
				c-0.3-0.6-0.8-1.1-1.3-1.4c-0.5-0.3-1.2-0.6-1.9-0.7c-0.7-0.1-1.5-0.2-2.3-0.2c-0.5,0-1.1,0.1-1.6,0.2c-0.5,0.1-1,0.3-1.5,0.6
				c-0.4,0.3-0.8,0.6-1.1,1.1c-0.3,0.4-0.4,1-0.4,1.6c0,0.6,0.1,1.1,0.3,1.5c0.2,0.4,0.7,0.7,1.4,1c0.7,0.3,1.6,0.6,2.8,0.9
				c1.2,0.3,2.7,0.7,4.6,1.2c0.6,0.1,1.4,0.3,2.4,0.6c1,0.3,2,0.8,3,1.4c1,0.7,1.9,1.5,2.6,2.6c0.7,1.1,1.1,2.5,1.1,4.2
				c0,1.4-0.3,2.7-0.8,3.9c-0.5,1.2-1.4,2.2-2.4,3.1c-1.1,0.9-2.4,1.6-4,2c-1.6,0.5-3.4,0.7-5.5,0.7c-1.7,0-3.3-0.2-4.9-0.6
				c-1.6-0.4-3-1.1-4.2-2c-1.2-0.9-2.2-2-2.9-3.4c-0.7-1.4-1.1-3-1-4.9h6.5C6.5,236.3,6.7,237.2,7.1,237.9z"/>
			<path class="st0" d="M42.7,214.9c1.9,0,3.5,0.3,4.9,0.8c1.3,0.6,2.4,1.3,3.3,2.2c0.8,0.9,1.5,2,1.8,3.1c0.4,1.2,0.6,2.4,0.6,3.6
				c0,1.2-0.2,2.4-0.6,3.6c-0.4,1.2-1,2.2-1.8,3.1c-0.8,0.9-1.9,1.7-3.3,2.2c-1.3,0.6-3,0.8-4.9,0.8h-7.1v11h-6.7v-30.6H42.7z
				 M40.8,229.3c0.8,0,1.5-0.1,2.2-0.2c0.7-0.1,1.3-0.3,1.9-0.7c0.5-0.3,1-0.8,1.3-1.4c0.3-0.6,0.5-1.4,0.5-2.4c0-1-0.2-1.8-0.5-2.4
				c-0.3-0.6-0.8-1.1-1.3-1.4c-0.5-0.3-1.2-0.5-1.9-0.7c-0.7-0.1-1.5-0.2-2.2-0.2h-5.2v9.2H40.8z"/>
			<path class="st0" d="M67.6,214.9L79,245.5h-7l-2.3-6.8H58.3l-2.4,6.8h-6.8l11.6-30.6H67.6z M68,233.6l-3.9-11.2H64l-4,11.2H68z"
				/>
			<path class="st0" d="M98.2,214.9c1.4,0,2.6,0.2,3.7,0.7c1.1,0.4,2,1,2.8,1.8c0.8,0.8,1.4,1.7,1.8,2.7c0.4,1,0.6,2.1,0.6,3.3
				c0,1.8-0.4,3.4-1.1,4.7c-0.8,1.3-2,2.3-3.7,3v0.1c0.8,0.2,1.5,0.6,2.1,1.1c0.5,0.5,1,1,1.3,1.7c0.3,0.6,0.6,1.3,0.8,2.1
				c0.2,0.8,0.3,1.5,0.3,2.3c0,0.5,0.1,1.1,0.1,1.7c0,0.7,0.1,1.3,0.2,2c0.1,0.7,0.2,1.3,0.3,1.9c0.2,0.6,0.4,1.1,0.7,1.6h-6.7
				c-0.4-1-0.6-2.1-0.7-3.5c-0.1-1.3-0.2-2.6-0.4-3.9c-0.2-1.6-0.7-2.8-1.5-3.5c-0.7-0.7-2-1.1-3.6-1.1h-6.7v12h-6.7v-30.6H98.2z
				 M95.8,228.7c1.5,0,2.7-0.3,3.5-1c0.8-0.7,1.2-1.8,1.2-3.3c0-1.5-0.4-2.6-1.2-3.2c-0.8-0.7-1.9-1-3.5-1h-7.4v8.6H95.8z"/>
			<path class="st0" d="M117.6,214.9v12.7l12-12.7h8.4L126,227l13.1,18.5h-8.4l-9.2-13.8l-3.9,3.9v9.9h-6.7v-30.6H117.6z"/>
		</g>
	</g>
	<path id="XMLID_14798_" class="st0" d="M179.7,214.9V242h16.2v3.4h-20.3v-30.6H179.7z"/>
	<path id="XMLID_14795_" class="st0" d="M214.9,214.9l12,30.6h-4.5l-3.3-9.2h-12.9l-3.4,9.2h-4.2l11.9-30.6H214.9z M217.7,232.8
		l-5.1-14.3h-0.1l-5.2,14.3H217.7z"/>
	<path id="XMLID_14791_" class="st0" d="M240.9,214.9c0.7,0,1.4,0,2.1,0c0.8,0,1.5,0.1,2.3,0.1c0.7,0.1,1.4,0.2,2.1,0.3
		c0.6,0.1,1.2,0.4,1.6,0.6c1,0.6,1.8,1.4,2.6,2.5c0.7,1.1,1.1,2.4,1.1,3.9c0,1.6-0.4,3-1.2,4.2c-0.8,1.2-1.9,2.1-3.4,2.6v0.1
		c1.9,0.4,3.3,1.3,4.3,2.6c1,1.3,1.5,2.9,1.5,4.8c0,1.1-0.2,2.2-0.6,3.3c-0.4,1.1-1,2-1.8,2.8c-0.8,0.8-1.8,1.5-2.9,2
		c-1.2,0.5-2.5,0.7-4,0.7h-14.8v-30.6H240.9z M242.1,228c2.3,0,4-0.4,5-1.2c1-0.8,1.5-2,1.5-3.7c0-1.1-0.2-1.9-0.5-2.6
		c-0.3-0.6-0.8-1.1-1.4-1.5c-0.6-0.3-1.3-0.6-2.1-0.7c-0.8-0.1-1.6-0.1-2.5-0.1h-8.1v9.7H242.1z M244.1,242c1.8,0,3.2-0.5,4.2-1.5
		c1-1,1.5-2.3,1.5-4c0-1-0.2-1.8-0.6-2.5c-0.4-0.7-0.9-1.2-1.5-1.6c-0.6-0.4-1.3-0.7-2.1-0.8c-0.8-0.2-1.6-0.2-2.5-0.2h-9.3V242
		H244.1z"/>
	<path id="XMLID_14789_" class="st0" d="M260.7,240.7v4.8H256v-4.8H260.7z"/>
	<g id="XMLID_14786_">
		<path id="XMLID_14787_" class="st0" d="M143.7,214.9h4.9l7.6,12l8-12h4.5l-10.1,14.9l10.8,15.7h-5l-8.2-12.6l-8.5,12.6h-4.5
			l10.6-15.7L143.7,214.9z"/>
	</g>
</g>
<path class="st1" d="z"/>
</svg>
