<?xml version="1.0" encoding="utf-8"?>
<!-- Generator: Adobe Illustrator 20.0.0, SVG Export Plug-In . SVG Version: 6.00 Build 0)  -->
<svg version="1.1" id="Layer_1" xmlns="http://www.w3.org/2000/svg" xmlns:xlink="http://www.w3.org/1999/xlink" x="0px" y="0px"
	 viewBox="0 0 203.1 72.7" style="enable-background:new 0 0 203.1 72.7;" xml:space="preserve">
<style type="text/css">
	.st0{fill:#FFFFFF;}
</style>
<g>
	<g id="XMLID_7_">
		<g>
			<path class="st0" d="M5.7,42.5c0.3,0.5,0.7,1,1.2,1.3s1,0.6,1.7,0.8c0.6,0.2,1.3,0.2,2,0.2c0.5,0,0.9,0,1.5-0.2
				c0.5-0.1,1-0.2,1.5-0.5c0.5-0.2,0.9-0.5,1.2-0.9c0.3-0.4,0.5-0.9,0.5-1.5s-0.2-1.2-0.6-1.6c-0.4-0.4-0.9-0.7-1.6-1
				c-0.7-0.2-1.4-0.5-2.3-0.7S9.1,38,8.2,37.7c-0.9-0.2-1.8-0.5-2.6-0.9c-0.9-0.3-1.6-0.7-2.3-1.2c-0.8-0.3-1.2-0.9-1.7-1.7
				C1.2,33.1,1,32.2,1,31.1c0-1.2,0.2-2.3,0.8-3.2c0.5-0.9,1.2-1.6,2-2.3c0.9-0.6,1.8-1,2.9-1.3s2.1-0.5,3.2-0.5
				c1.2,0,2.4,0.2,3.6,0.4c1.2,0.3,2.2,0.7,3,1.3c0.9,0.6,1.6,1.4,2.1,2.4c0.5,0.9,0.8,2.2,0.8,3.5h-5.1c-0.1-0.7-0.2-1.3-0.5-1.8
				c-0.2-0.5-0.6-0.9-1-1.1S11.9,28,11.3,28c-0.5-0.1-1.2-0.2-1.8-0.2c-0.4,0-0.9,0.1-1.2,0.2c-0.4,0.1-0.8,0.2-1.2,0.5
				c-0.3,0.2-0.6,0.5-0.9,0.9c-0.2,0.3-0.3,0.8-0.3,1.2s0.1,0.9,0.2,1.2c0.2,0.3,0.5,0.5,1.1,0.8s1.2,0.5,2.2,0.7
				c0.9,0.2,2.1,0.5,3.6,0.9c0.5,0.1,1.1,0.2,1.9,0.5c0.8,0.2,1.6,0.6,2.3,1.1c0.8,0.5,1.5,1.2,2,2c0.5,0.9,0.9,1.9,0.9,3.3
				c0,1.1-0.2,2.1-0.6,3s-1.1,1.7-1.9,2.4c-0.9,0.7-1.9,1.2-3.1,1.6c-1.2,0.4-2.6,0.5-4.3,0.5c-1.3,0-2.6-0.2-3.8-0.5
				s-2.3-0.9-3.3-1.6c-0.9-0.7-1.7-1.6-2.3-2.6c-0.5-1.1-0.9-2.3-0.8-3.8h5.1C5.3,41.3,5.4,42,5.7,42.5z"/>
			<path class="st0" d="M33.4,24.6c1.5,0,2.7,0.2,3.8,0.6c1,0.5,1.9,1,2.6,1.7c0.6,0.7,1.2,1.6,1.4,2.4c0.3,0.9,0.5,1.9,0.5,2.8
				s-0.2,1.9-0.5,2.8s-0.8,1.7-1.4,2.4c-0.6,0.7-1.5,1.3-2.6,1.7c-1,0.5-2.3,0.6-3.8,0.6h-5.5v8.6h-5.2V24.5h10.7V24.6z M32,35.8
				c0.6,0,1.2-0.1,1.7-0.2c0.5-0.1,1-0.2,1.5-0.5c0.4-0.2,0.8-0.6,1-1.1s0.4-1.1,0.4-1.9c0-0.8-0.2-1.4-0.4-1.9s-0.6-0.9-1-1.1
				s-0.9-0.4-1.5-0.5c-0.5-0.1-1.2-0.2-1.7-0.2h-4v7.2h4V35.8z"/>
			<path class="st0" d="M52.8,24.6l8.9,23.8h-5.4l-1.8-5.3h-8.9l-1.9,5.3h-5.3l9-23.8C47.4,24.6,52.8,24.6,52.8,24.6z M53.1,39.2
				l-3-8.7H50l-3.1,8.7H53.1z"/>
			<path class="st0" d="M76.6,24.6c1.1,0,2,0.2,2.9,0.5s1.6,0.8,2.2,1.4s1.1,1.3,1.4,2.1s0.5,1.6,0.5,2.6c0,1.4-0.3,2.6-0.9,3.7
				c-0.6,1-1.6,1.8-2.9,2.3v0.1c0.6,0.2,1.2,0.5,1.6,0.9s0.8,0.8,1,1.3s0.5,1,0.6,1.6c0.2,0.6,0.2,1.2,0.2,1.8
				c0,0.4,0.1,0.9,0.1,1.3c0,0.5,0.1,1,0.2,1.6c0.1,0.5,0.2,1,0.2,1.5c0.2,0.5,0.3,0.9,0.5,1.2H79c-0.3-0.8-0.5-1.6-0.5-2.7
				c-0.1-1-0.2-2-0.3-3c-0.2-1.2-0.5-2.2-1.2-2.7c-0.5-0.5-1.6-0.9-2.8-0.9H69v9.3h-5.2V24.7L76.6,24.6L76.6,24.6z M74.8,35.4
				c1.2,0,2.1-0.2,2.7-0.8c0.6-0.5,0.9-1.4,0.9-2.6c0-1.2-0.3-2-0.9-2.5s-1.5-0.8-2.7-0.8H69v6.7L74.8,35.4L74.8,35.4z"/>
			<path class="st0" d="M91.7,24.6v9.9l9.3-9.9h6.5L98.2,34l10.2,14.4h-6.5l-7.2-10.7l-3,3v7.7h-5.2V24.6H91.7L91.7,24.6z"/>
		</g>
	</g>
	<path id="XMLID_6_" class="st0" d="M140,24.6v21.1h12.6v2.6h-15.8V24.5L140,24.6L140,24.6z"/>
	<path id="XMLID_5_" class="st0" d="M167.4,24.6l9.3,23.8h-3.5l-2.6-7.2h-10l-2.6,7.2h-3.3l9.3-23.8C164,24.6,167.4,24.6,167.4,24.6
		z M169.6,38.5l-4-11.1h-0.1l-4,11.1H169.6z"/>
	<path id="XMLID_4_" class="st0" d="M187.6,24.6c0.5,0,1.1,0,1.6,0c0.6,0,1.2,0.1,1.8,0.1c0.5,0.1,1.1,0.2,1.6,0.2
		c0.5,0.1,0.9,0.3,1.2,0.5c0.8,0.5,1.4,1.1,2,1.9c0.5,0.9,0.9,1.9,0.9,3c0,1.2-0.3,2.3-0.9,3.3s-1.5,1.6-2.6,2v0.1
		c1.5,0.3,2.6,1,3.3,2c0.8,1,1.2,2.3,1.2,3.7c0,0.9-0.2,1.7-0.5,2.6c-0.3,0.9-0.8,1.6-1.4,2.2c-0.6,0.6-1.4,1.2-2.3,1.6
		c-0.9,0.4-1.9,0.5-3.1,0.5h-11.5V24.5L187.6,24.6L187.6,24.6z M188.6,34.8c1.8,0,3.1-0.3,3.9-0.9c0.8-0.6,1.2-1.6,1.2-2.9
		c0-0.9-0.2-1.5-0.4-2s-0.6-0.9-1.1-1.2c-0.5-0.2-1-0.5-1.6-0.5c-0.6-0.1-1.2-0.1-1.9-0.1h-6.3v7.5L188.6,34.8L188.6,34.8z
		 M190.1,45.7c1.4,0,2.5-0.4,3.3-1.2s1.2-1.8,1.2-3.1c0-0.8-0.2-1.4-0.5-1.9s-0.7-0.9-1.2-1.2s-1-0.5-1.6-0.6
		c-0.6-0.2-1.2-0.2-1.9-0.2h-7.2v8.2H190.1z"/>
	<path id="XMLID_3_" class="st0" d="M203.1,44.7v3.7h-3.7v-3.7H203.1z"/>
	<g id="XMLID_1_">
		<path id="XMLID_2_" class="st0" d="M112,24.6h3.8l5.9,9.3l6.2-9.3h3.5l-7.9,11.6l8.4,12.2H128l-6.4-9.8l-6.6,9.8h-3.5l8.2-12.2
			L112,24.6z"/>
	</g>
</g>
</svg>
