<?xml version="1.0" encoding="utf-8"?>
<!-- Generator: Adobe Illustrator 20.0.0, SVG Export Plug-In . SVG Version: 6.00 Build 0)  -->
<svg version="1.1" id="Layer_1" xmlns="http://www.w3.org/2000/svg" xmlns:xlink="http://www.w3.org/1999/xlink" x="0px" y="0px"
	 viewBox="0 0 72.7 72.7" style="enable-background:new 0 0 72.7 72.7;" xml:space="preserve">
<style type="text/css">
	.st0{fill:#FFFFFF;}
</style>
<g>
	<polygon id="XMLID_8_" class="st0" points="45.8,33.5 58,36.5 51.6,38 53.4,41.2 72.7,36.6 43.3,29.3 42.9,30.7 41,27.6 51.8,21.2 
		48.4,26.7 51.8,27.7 62.4,10.8 36.3,26.5 41.7,35.5 40.7,39.6 37,41.8 33.3,40.9 31,37.1 36.5,14.7 38,21.2 41.2,19.4 36.6,0 
		28.4,32.9 21.2,20.9 26.9,24.5 27.8,20.9 10.8,10.5 27.2,37.6 26.8,39.3 14.7,36.3 21.2,34.8 19.4,31.6 0,36.1 31.1,43.9 31.7,45 
		21,51.5 24.5,45.9 20.9,45 10.5,61.9 37.6,45.5 39.2,46 36.2,58 34.7,51.5 31.5,53.4 36.1,72.7 43.8,41.8 45.1,41 44.8,40.5 
		51.6,51.8 45.9,48.3 45,51.8 61.9,62.3 45.5,34.9 	"/>
</g>
</svg>
