<?xml version="1.0" encoding="utf-8"?>
<!-- Generator: Adobe Illustrator 20.0.0, SVG Export Plug-In . SVG Version: 6.00 Build 0)  -->
<svg version="1.1" id="Layer_1" xmlns="http://www.w3.org/2000/svg" xmlns:xlink="http://www.w3.org/1999/xlink" x="0px" y="0px"
	 viewBox="0 0 291.6 72.7" style="enable-background:new 0 0 291.6 72.7;" xml:space="preserve">
<style type="text/css">
	.st0{fill:#FFFFFF;enable-background:new    ;}
	.st1{fill:#FFFFFF;}
</style>
<path class="st0" d="M-529.1-261.1"/>
<g>
	<polygon id="XMLID_8_" class="st1" points="45.8,33.5 58,36.5 51.6,38 53.4,41.2 72.7,36.6 43.3,29.3 42.9,30.7 41,27.6 51.8,21.2 
		48.4,26.7 51.8,27.7 62.4,10.8 36.3,26.5 41.7,35.5 40.7,39.6 37,41.8 33.3,40.9 31,37.1 36.5,14.7 38,21.2 41.2,19.4 36.6,0 
		28.4,32.9 21.2,20.9 26.9,24.5 27.8,20.9 10.8,10.5 27.2,37.6 26.8,39.3 14.7,36.3 21.2,34.8 19.4,31.6 0,36.1 31.1,43.9 31.7,45 
		21,51.5 24.5,45.9 20.9,45 10.5,61.9 37.6,45.5 39.2,46 36.2,58 34.7,51.5 31.5,53.4 36.1,72.7 43.8,41.8 45.1,41 44.8,40.5 
		51.6,51.8 45.9,48.3 45,51.8 61.9,62.3 45.5,34.9 	"/>
</g>
<g>
	<g id="XMLID_7_">
		<g>
			<path class="st1" d="M94.2,42.5c0.3,0.5,0.7,1,1.2,1.3c0.5,0.3,1,0.6,1.7,0.8c0.6,0.2,1.3,0.2,2,0.2c0.5,0,0.9,0,1.5-0.2
				c0.5-0.1,1-0.2,1.5-0.5c0.5-0.2,0.9-0.5,1.2-0.9c0.3-0.4,0.5-0.9,0.5-1.5c0-0.6-0.2-1.2-0.6-1.6c-0.4-0.4-0.9-0.7-1.6-1
				c-0.7-0.2-1.4-0.5-2.3-0.7c-0.9-0.2-1.7-0.4-2.6-0.7c-0.9-0.2-1.8-0.5-2.6-0.9c-0.9-0.3-1.6-0.7-2.3-1.2
				c-0.8-0.3-1.2-0.9-1.7-1.7c-0.4-0.8-0.6-1.7-0.6-2.8c0-1.2,0.2-2.3,0.8-3.2c0.5-0.9,1.2-1.6,2-2.3c0.9-0.6,1.8-1,2.9-1.3
				c1.1-0.3,2.1-0.5,3.2-0.5c1.2,0,2.4,0.2,3.6,0.4c1.2,0.3,2.2,0.7,3,1.3c0.9,0.6,1.6,1.4,2.1,2.4c0.5,0.9,0.8,2.2,0.8,3.5h-5.1
				c-0.1-0.7-0.2-1.3-0.5-1.8c-0.2-0.5-0.6-0.9-1-1.1c-0.4-0.2-0.9-0.5-1.5-0.5c-0.5-0.1-1.2-0.2-1.8-0.2c-0.4,0-0.9,0.1-1.2,0.2
				c-0.4,0.1-0.8,0.2-1.2,0.5c-0.3,0.2-0.6,0.5-0.9,0.9c-0.2,0.3-0.3,0.8-0.3,1.2s0.1,0.9,0.2,1.2c0.2,0.3,0.5,0.5,1.1,0.8
				s1.2,0.5,2.2,0.7c0.9,0.2,2.1,0.5,3.6,0.9c0.5,0.1,1.1,0.2,1.9,0.5c0.8,0.2,1.6,0.6,2.3,1.1c0.8,0.5,1.5,1.2,2,2
				c0.5,0.9,0.9,1.9,0.9,3.3c0,1.1-0.2,2.1-0.6,3s-1.1,1.7-1.9,2.4c-0.9,0.7-1.9,1.2-3.1,1.6c-1.2,0.4-2.6,0.5-4.3,0.5
				c-1.3,0-2.6-0.2-3.8-0.5c-1.2-0.3-2.3-0.9-3.3-1.6c-0.9-0.7-1.7-1.6-2.3-2.6c-0.5-1.1-0.9-2.3-0.8-3.8h5.1
				C93.8,41.3,93.9,42,94.2,42.5z"/>
			<path class="st1" d="M121.9,24.6c1.5,0,2.7,0.2,3.8,0.6c1,0.5,1.9,1,2.6,1.7c0.6,0.7,1.2,1.6,1.4,2.4c0.3,0.9,0.5,1.9,0.5,2.8
				c0,0.9-0.2,1.9-0.5,2.8c-0.3,0.9-0.8,1.7-1.4,2.4c-0.6,0.7-1.5,1.3-2.6,1.7c-1,0.5-2.3,0.6-3.8,0.6h-5.5v8.6h-5.2V24.5h10.7V24.6
				z M120.5,35.8c0.6,0,1.2-0.1,1.7-0.2c0.5-0.1,1-0.2,1.5-0.5c0.4-0.2,0.8-0.6,1-1.1c0.2-0.5,0.4-1.1,0.4-1.9
				c0-0.8-0.2-1.4-0.4-1.9c-0.2-0.5-0.6-0.9-1-1.1c-0.4-0.2-0.9-0.4-1.5-0.5c-0.5-0.1-1.2-0.2-1.7-0.2h-4v7.2h4V35.8z"/>
			<path class="st1" d="M141.3,24.6l8.9,23.8h-5.4l-1.8-5.3h-8.9l-1.9,5.3h-5.3l9-23.8H141.3z M141.6,39.2l-3-8.7h-0.1l-3.1,8.7
				H141.6z"/>
			<path class="st1" d="M165.1,24.6c1.1,0,2,0.2,2.9,0.5c0.9,0.3,1.6,0.8,2.2,1.4c0.6,0.6,1.1,1.3,1.4,2.1s0.5,1.6,0.5,2.6
				c0,1.4-0.3,2.6-0.9,3.7c-0.6,1-1.6,1.8-2.9,2.3v0.1c0.6,0.2,1.2,0.5,1.6,0.9c0.4,0.4,0.8,0.8,1,1.3c0.2,0.5,0.5,1,0.6,1.6
				c0.2,0.6,0.2,1.2,0.2,1.8c0,0.4,0.1,0.9,0.1,1.3c0,0.5,0.1,1,0.2,1.6c0.1,0.5,0.2,1,0.2,1.5c0.2,0.5,0.3,0.9,0.5,1.2h-5.2
				c-0.3-0.8-0.5-1.6-0.5-2.7c-0.1-1-0.2-2-0.3-3c-0.2-1.2-0.5-2.2-1.2-2.7c-0.5-0.5-1.6-0.9-2.8-0.9h-5.2v9.3h-5.2V24.7L165.1,24.6
				L165.1,24.6z M163.3,35.4c1.2,0,2.1-0.2,2.7-0.8c0.6-0.5,0.9-1.4,0.9-2.6c0-1.2-0.3-2-0.9-2.5c-0.6-0.5-1.5-0.8-2.7-0.8h-5.8v6.7
				L163.3,35.4L163.3,35.4z"/>
			<path class="st1" d="M180.2,24.6v9.9l9.3-9.9h6.5l-9.3,9.4l10.2,14.4h-6.5l-7.2-10.7l-3,3v7.7H175V24.6L180.2,24.6L180.2,24.6z"
				/>
		</g>
	</g>
	<path id="XMLID_6_" class="st1" d="M228.5,24.6v21.1h12.6v2.6h-15.8V24.5L228.5,24.6L228.5,24.6z"/>
	<path id="XMLID_5_" class="st1" d="M255.9,24.6l9.3,23.8h-3.5l-2.6-7.2h-10l-2.6,7.2h-3.3l9.3-23.8H255.9z M258.1,38.5l-4-11.1
		h-0.1l-4,11.1H258.1z"/>
	<path id="XMLID_4_" class="st1" d="M276.1,24.6c0.5,0,1.1,0,1.6,0c0.6,0,1.2,0.1,1.8,0.1c0.5,0.1,1.1,0.2,1.6,0.2
		c0.5,0.1,0.9,0.3,1.2,0.5c0.8,0.5,1.4,1.1,2,1.9c0.5,0.9,0.9,1.9,0.9,3c0,1.2-0.3,2.3-0.9,3.3s-1.5,1.6-2.6,2v0.1
		c1.5,0.3,2.6,1,3.3,2c0.8,1,1.2,2.3,1.2,3.7c0,0.9-0.2,1.7-0.5,2.6c-0.3,0.9-0.8,1.6-1.4,2.2c-0.6,0.6-1.4,1.2-2.3,1.6
		c-0.9,0.4-1.9,0.5-3.1,0.5h-11.5V24.5L276.1,24.6L276.1,24.6z M277.1,34.8c1.8,0,3.1-0.3,3.9-0.9c0.8-0.6,1.2-1.6,1.2-2.9
		c0-0.9-0.2-1.5-0.4-2c-0.2-0.5-0.6-0.9-1.1-1.2c-0.5-0.2-1-0.5-1.6-0.5c-0.6-0.1-1.2-0.1-1.9-0.1h-6.3v7.5L277.1,34.8L277.1,34.8z
		 M278.6,45.7c1.4,0,2.5-0.4,3.3-1.2c0.8-0.8,1.2-1.8,1.2-3.1c0-0.8-0.2-1.4-0.5-1.9c-0.3-0.5-0.7-0.9-1.2-1.2
		c-0.5-0.3-1-0.5-1.6-0.6c-0.6-0.2-1.2-0.2-1.9-0.2h-7.2v8.2H278.6z"/>
	<path id="XMLID_3_" class="st1" d="M291.6,44.7v3.7h-3.7v-3.7H291.6z"/>
	<g id="XMLID_1_">
		<path id="XMLID_2_" class="st1" d="M200.5,24.6h3.8l5.9,9.3l6.2-9.3h3.5l-7.9,11.6l8.4,12.2h-3.9l-6.4-9.8l-6.6,9.8h-3.5l8.2-12.2
			L200.5,24.6z"/>
	</g>
</g>
<path class="st0" d="M115.9-189.3"/>
</svg>
