<?xml version="1.0" encoding="utf-8"?>
<!-- Generator: Adobe Illustrator 20.0.0, SVG Export Plug-In . SVG Version: 6.00 Build 0)  -->
<svg version="1.1" id="Map-svg" xmlns="http://www.w3.org/2000/svg" xmlns:xlink="http://www.w3.org/1999/xlink" x="0px" y="0px"
	 viewBox="0 0 670.2 432.4" style="enable-background:new 0 0 670.2 432.4;" xml:space="preserve">
<style type="text/css">
	.st0{opacity:0.2;fill:url(#SVGID_1_);}
	.st1{fill:none;}
	.st2{opacity:0.2;fill:url(#SVGID_2_);}
	.st3{opacity:0.2;fill:url(#SVGID_3_);}
	.st4{opacity:0.2;fill:url(#SVGID_4_);}
	.st5{opacity:0.2;fill:url(#SVGID_5_);}
	.st6{opacity:0.2;fill:url(#SVGID_6_);}
	.st7{opacity:0.2;fill:url(#SVGID_7_);}
	.st8{opacity:0.2;fill:url(#SVGID_8_);}
	.st9{opacity:0.2;fill:url(#SVGID_9_);}
	.st10{opacity:0.2;fill:url(#SVGID_10_);}
	.st11{opacity:0.2;fill:url(#SVGID_11_);}
	.st12{opacity:0.2;fill:url(#SVGID_12_);}
	.st13{fill:url(#SVGID_13_);}
	.st14{fill:url(#SVGID_14_);}
	.st15{fill:url(#SVGID_15_);}
	.st16{fill:url(#SVGID_16_);}
	.st17{fill:url(#SVGID_17_);}
</style>
<linearGradient id="SVGID_1_" gradientUnits="userSpaceOnUse" x1="337.9001" y1="56.8" x2="370.3" y2="56.8">
	<stop  offset="0" style="stop-color:#FFFFFF;stop-opacity:0.1"/>
	<stop  offset="1" style="stop-color:#FFFFFF;stop-opacity:0.35"/>
</linearGradient>
<polygon class="st0" points="338,49.3 345.5,48.7 353.2,42 363.8,42 370,39.6 370,44.6 367.1,50.1 368.6,50.2 365.1,54.3 370.3,60 
	355.5,73.8 352.1,74 345.9,69.3 345.9,69.3 345.9,65.4 341.9,61 341.9,53.5 337.9,50.1 338,49.3 "/>
<polygon class="st1" points="312,166 312,175.1 322.7,186 320,186 319.4,195 296,195 296,174.3 308.5,161.5 "/>
<linearGradient id="SVGID_2_" gradientUnits="userSpaceOnUse" x1="134" y1="42.5" x2="197.2" y2="42.5">
	<stop  offset="0" style="stop-color:#FFFFFF;stop-opacity:0.1"/>
	<stop  offset="1" style="stop-color:#FFFFFF;stop-opacity:0.35"/>
</linearGradient>
<polygon class="st2" points="134,26.4 154.5,19 161.5,19 174.3,6 197.2,6 197,6 197,14.6 182,29.6 182,47.7 170,60.3 170,79 
	158.4,79 153.3,72 157.5,62.9 134,42.7 "/>
<linearGradient id="SVGID_3_" gradientUnits="userSpaceOnUse" x1="125.2" y1="130.5" x2="201.4" y2="130.5">
	<stop  offset="0" style="stop-color:#FFFFFF;stop-opacity:0.1"/>
	<stop  offset="1" style="stop-color:#FFFFFF;stop-opacity:0.35"/>
</linearGradient>
<polygon class="st3" points="201.4,132.1 194,138.6 194,160 193.4,160 180,143.2 180,125.8 162.4,108.1 153.4,116.7 146.2,109.8 
	140.9,114.2 125.2,101 178.5,101 192,113 192,121.4 "/>
<linearGradient id="SVGID_4_" gradientUnits="userSpaceOnUse" x1="123" y1="74" x2="176.1" y2="74">
	<stop  offset="0" style="stop-color:#FFFFFF;stop-opacity:0.1"/>
	<stop  offset="1" style="stop-color:#FFFFFF;stop-opacity:0.35"/>
</linearGradient>
<polygon class="st4" points="123.1,57.1 137.6,57 144.4,62.1 139.8,65.4 157.3,86 169.8,86 176.1,91 140,91 123,73.2 "/>
<linearGradient id="SVGID_5_" gradientUnits="userSpaceOnUse" x1="93.8" y1="83" x2="114" y2="83">
	<stop  offset="0" style="stop-color:#FFFFFF;stop-opacity:0.1"/>
	<stop  offset="1" style="stop-color:#FFFFFF;stop-opacity:0.35"/>
</linearGradient>
<polygon class="st5" points="107.5,73 114,80.3 114,93 109.5,93 94.1,77.8 93.8,73 "/>
<linearGradient id="SVGID_6_" gradientUnits="userSpaceOnUse" x1="78" y1="110.5" x2="135.7" y2="110.5">
	<stop  offset="0" style="stop-color:#FFFFFF;stop-opacity:0.1"/>
	<stop  offset="1" style="stop-color:#FFFFFF;stop-opacity:0.35"/>
</linearGradient>
<polygon class="st6" points="78,95 99.2,95 105.5,101 113.5,101 135.7,123.7 134.2,126 126.4,126 122.2,121.8 118,126 107.7,126 
	97.2,115 91.4,115 78,101.6 "/>
<linearGradient id="SVGID_7_" gradientUnits="userSpaceOnUse" x1="0" y1="273.75" x2="247" y2="273.75">
	<stop  offset="0" style="stop-color:#FFFFFF;stop-opacity:0.1"/>
	<stop  offset="1" style="stop-color:#FFFFFF;stop-opacity:0.35"/>
</linearGradient>
<polygon class="st7" points="247,315 247,333.3 219,362 219,369 192,397.7 192,409 187,412.7 187,432.4 177,421.7 177,389.7 
	180,386.4 180,366.4 182,362.7 182,345 161,323.7 161,302.4 166.8,297.1 154.7,284.1 139.5,284.1 128.5,272.1 124.8,272.1 96,243.3 
	96,236.6 81,222.6 81,193.6 53.8,165 40.2,165 24.8,174.6 7,157.3 7,142.6 0,136 0,119.7 18.5,115.1 31.2,115.1 36.2,120.1 
	50.9,120.1 56.6,124.1 97.7,124.1 107.3,135.1 118.3,135.1 122.6,130.8 126.9,135.1 138.9,135.1 146.2,123.6 152.3,127.1 158.6,119 
	163,126.4 163,135.1 141,157.4 141,180 155.5,180 169,191.6 169,178.7 176,171.7 171,166.7 171,157 183.2,157 217.2,191.3 
	191.8,217 182,217 174,225 174,230.3 160.3,243.3 160.3,246.6 162.4,250 162.3,256.4 159.3,256.5 155.7,250 131.9,250.3 
	131.9,262.3 142,273 151.9,271 151.9,272.6 169.7,290 216.4,290 239.7,315 247,315 "/>
<linearGradient id="SVGID_8_" gradientUnits="userSpaceOnUse" x1="181" y1="83" x2="302" y2="83">
	<stop  offset="0" style="stop-color:#FFFFFF;stop-opacity:0.1"/>
	<stop  offset="1" style="stop-color:#FFFFFF;stop-opacity:0.35"/>
</linearGradient>
<polygon class="st8" points="262.3,131 240,139.7 240,142.4 234,148.6 234,166 218,151 218,113.8 208,104.2 208,86.4 201.6,79 
	181,79 181,59.6 187,52.4 187,31.1 205.1,31 220.4,16 229.9,16 246.1,0 263.2,0 279.1,13.1 274.7,14.8 280.6,22.5 287.4,19 
	293.4,19 302,27.5 282,40.6 282,65.9 279,69.8 279,89.5 277,96.4 280.2,116.7 269.7,131 "/>
<linearGradient id="SVGID_9_" gradientUnits="userSpaceOnUse" x1="272" y1="145.9" x2="292" y2="145.9">
	<stop  offset="0" style="stop-color:#FFFFFF;stop-opacity:0.1"/>
	<stop  offset="1" style="stop-color:#FFFFFF;stop-opacity:0.35"/>
</linearGradient>
<polygon class="st9" points="272,145.1 272,138.7 284.5,137.9 292,137.9 292,140.6 291.5,153.9 280.7,153.9 "/>
<polygon class="st1" points="412,339.8 406,345.3 406,361 401,361 401,335.3 412,323.9 "/>
<polygon class="st1" points="395,309.2 395,333.5 384,342.8 384,351.4 380,355.7 380,362.7 375.9,380 362.2,380 343,361.5 
	343,345.5 338,340.6 338,311.7 333,306.7 333,301 304.4,301 285,282.3 285,255 313.7,240 320.8,240 325.6,235 337,235 337,241 
	349.1,241 355,248 355,245 373.8,245 387,260 387,268.3 408.5,289 415.2,289 "/>
<polygon class="st1" points="525.3,322.6 509,322.6 509,319.4 498.7,309 498.7,302.3 510.9,314.5 523.4,314.5 527.6,318.7 "/>
<linearGradient id="SVGID_10_" gradientUnits="userSpaceOnUse" x1="597.1" y1="396.3" x2="601.7" y2="396.3">
	<stop  offset="0" style="stop-color:#FFFFFF;stop-opacity:0.1"/>
	<stop  offset="1" style="stop-color:#FFFFFF;stop-opacity:0.35"/>
</linearGradient>
<polygon class="st10" points="600.3,400 597.1,395.7 597.4,392.6 601.7,392.6 "/>
<linearGradient id="SVGID_11_" gradientUnits="userSpaceOnUse" x1="535.4001" y1="359.55" x2="605.1" y2="359.55">
	<stop  offset="0" style="stop-color:#FFFFFF;stop-opacity:0.1"/>
	<stop  offset="1" style="stop-color:#FFFFFF;stop-opacity:0.35"/>
</linearGradient>
<polygon class="st11" points="591.6,388 588.8,385.3 589,379 581.7,379 576.4,373 564,373 559.4,379 550.8,379 548,380 536,380 
	536,363.8 535.4,361.8 538.3,352.8 544.8,349.9 550,349.9 565.2,334.9 576,334.9 576,331.8 586,342.4 586,331 589,331 595,335 
	595,338.8 605,351 605.1,388.1 591.6,388.1 "/>
<polygon class="st1" points="533.6,313.8 552,298 550.7,321.3 543.1,324 "/>
<polygon class="st1" points="590.3,219.3 584.8,219.3 582.5,222.5 584.9,226 585,235 574.7,242.7 574.7,244.7 572.6,246 
	569.2,243.3 569.3,236.8 579.8,228.6 579.7,217.3 586.5,209.5 594.5,214.2 "/>
<linearGradient id="SVGID_12_" gradientUnits="userSpaceOnUse" x1="576.3" y1="321" x2="600.9999" y2="321">
	<stop  offset="0" style="stop-color:#FFFFFF;stop-opacity:0.1"/>
	<stop  offset="1" style="stop-color:#FFFFFF;stop-opacity:0.35"/>
</linearGradient>
<polygon class="st12" points="600.8,327 584.5,327 576.3,318.4 579.3,315 597.9,315 601,317.4 "/>
<polygon class="st1" points="654,142.2 654,146.3 612.7,190 614.6,173.6 623.3,162.1 612.7,171.1 593.7,171.1 580.2,185.1 
	584,185.1 584,199.4 562.8,223.8 569.4,228.5 562.3,234.2 556,230.6 556,227.8 548.8,221.6 543,226.5 543,232.7 548,236.7 
	548,249.6 543.5,267.2 528.9,267.2 520.6,269 529,278.4 529,282.2 522.2,293.7 516,286 516,295.3 518.1,298.5 517.5,304.5 
	511.7,304 509.7,296.5 509.5,280.1 495.9,266 491.9,266 476.6,278.7 476.3,282.7 471.2,288.9 462.8,280.8 462.6,271.1 449.2,261 
	433.9,261 439.9,266.8 422.5,284 410.8,284 392,266.1 392,258.2 376.7,242.2 384.1,236 375.5,236 353.3,210.9 348.9,208 
	348.9,212.6 355.2,219.2 355.2,223.9 351.4,225.9 341.3,219 334.3,219 318.2,235 309.7,235 299,224.2 299,219 315,219 315,203.4 
	335.9,187 357.5,187 362.1,169.6 362.1,160.3 359.1,160.3 359.1,148.5 362.1,144.8 350.1,148.3 350.1,181 341,181 341,173 327,173 
	327,145.4 369.2,116 381.8,116 395,129.7 395,133.5 388.5,139.4 380,131.6 380,137.7 392.1,148.9 420.4,127 436.5,127 457.5,107 
	469.5,107 495.2,82 511.1,82 523.6,68.9 529.3,75 537.5,75 537.4,91.5 528.5,101 558.7,101 567.5,110 611.5,110 625.8,124 
	642.1,124 644.4,121 659.9,121 670.2,132.4 "/>
<linearGradient id="SVGID_13_" gradientUnits="userSpaceOnUse" x1="350.1" y1="51.89" x2="350.1" y2="196.89" gradientTransform="matrix(1 0 0 -1 0 431.89)">
	<stop  offset="0" style="stop-color:#FFFFFF;stop-opacity:0.1"/>
	<stop  offset="1" style="stop-color:#FFFFFF;stop-opacity:0.35"/>
</linearGradient>
<polygon class="st13" points="395,309.2 395,333.5 384,342.8 384,351.4 380,355.7 380,362.7 375.9,380 362.2,380 343,361.5 
	343,345.5 338,340.6 338,311.7 333,306.7 333,301 304.4,301 285,282.3 285,255 313.7,240 320.8,240 325.6,235 337,235 337,241 
	349.1,241 355,248 355,245 373.8,245 387,260 387,268.3 408.5,289 415.2,289 "/>
<linearGradient id="SVGID_14_" gradientUnits="userSpaceOnUse" x1="513.15" y1="109.29" x2="513.15" y2="129.59" gradientTransform="matrix(1 0 0 -1 0 431.89)">
	<stop  offset="0" style="stop-color:#FFFFFF;stop-opacity:0.1"/>
	<stop  offset="1" style="stop-color:#FFFFFF;stop-opacity:0.35"/>
</linearGradient>
<polygon class="st14" points="525.3,322.6 509,322.6 509,319.4 498.7,309 498.7,302.3 510.9,314.5 523.4,314.5 527.6,318.7 "/>
<linearGradient id="SVGID_15_" gradientUnits="userSpaceOnUse" x1="542.8" y1="107.89" x2="542.8" y2="133.89" gradientTransform="matrix(1 0 0 -1 0 431.89)">
	<stop  offset="0" style="stop-color:#FFFFFF;stop-opacity:0.1"/>
	<stop  offset="1" style="stop-color:#FFFFFF;stop-opacity:0.35"/>
</linearGradient>
<polygon class="st15" points="533.6,313.8 552,298 550.7,321.3 543.1,324 "/>
<linearGradient id="SVGID_16_" gradientUnits="userSpaceOnUse" x1="581.85" y1="185.89" x2="581.85" y2="222.39" gradientTransform="matrix(1 0 0 -1 0 431.89)">
	<stop  offset="0" style="stop-color:#FFFFFF;stop-opacity:0.1"/>
	<stop  offset="1" style="stop-color:#FFFFFF;stop-opacity:0.35"/>
</linearGradient>
<polygon class="st16" points="590.3,219.3 584.8,219.3 582.5,222.5 584.9,226 585,235 574.7,242.7 574.7,244.7 572.6,246 
	569.2,243.3 569.3,236.8 579.8,228.6 579.7,217.3 586.5,209.5 594.5,214.2 "/>
<linearGradient id="SVGID_17_" gradientUnits="userSpaceOnUse" x1="74.6127" y1="1.1075" x2="74.6127" y2="1.6524" gradientTransform="matrix(670.2 0 0 432.4 -49520.8008 -409.9821)">
	<stop  offset="0" style="stop-color:#FFFFFF;stop-opacity:0.1"/>
	<stop  offset="1" style="stop-color:#FFFFFF;stop-opacity:0.35"/>
</linearGradient>
<polygon class="st17" points="654,142.2 654,146.3 612.7,190 614.6,173.6 623.3,162.1 612.7,171.1 593.7,171.1 580.2,185.1 
	584,185.1 584,199.4 562.8,223.8 569.4,228.5 562.3,234.2 556,230.6 556,227.8 548.8,221.6 543,226.5 543,232.7 548,236.7 
	548,249.6 543.5,267.2 528.9,267.2 520.6,269 529,278.4 529,282.2 522.2,293.7 516,286 516,295.3 518.1,298.5 517.5,304.5 
	511.7,304 509.7,296.5 509.5,280.1 495.9,266 491.9,266 476.6,278.7 476.3,282.7 471.2,288.9 462.8,280.8 462.6,271.1 449.2,261 
	433.9,261 439.9,266.8 422.5,284 410.8,284 392,266.1 392,258.2 376.7,242.2 384.1,236 375.5,236 353.3,210.9 348.9,208 
	348.9,212.6 355.2,219.2 355.2,223.9 351.4,225.9 341.3,219 334.3,219 318.2,235 309.7,235 299,224.2 299,219 315,219 315,203.4 
	335.9,187 357.5,187 362.1,169.6 362.1,160.3 359.1,160.3 359.1,148.5 362.1,144.8 350.1,148.3 350.1,181 341,181 341,173 327,173 
	327,145.4 369.2,116 381.8,116 395,129.7 395,133.5 388.5,139.4 380,131.6 380,137.7 392.1,148.9 420.4,127 436.5,127 457.5,107 
	469.5,107 495.2,82 511.1,82 523.6,68.9 529.3,75 537.5,75 537.4,91.5 528.5,101 558.7,101 567.5,110 611.5,110 625.8,124 
	642.1,124 644.4,121 659.9,121 670.2,132.4 "/>
</svg>
