<?xml version="1.0" encoding="utf-8"?>
<!-- Generator: Adobe Illustrator 20.0.0, SVG Export Plug-In . SVG Version: 6.00 Build 0)  -->
<svg version="1.1" id="Map-svg" xmlns="http://www.w3.org/2000/svg" xmlns:xlink="http://www.w3.org/1999/xlink" x="0px" y="0px"
	 viewBox="0 0 670.2 432.4" style="enable-background:new 0 0 670.2 432.4;" xml:space="preserve">
<style type="text/css">
	.st0{opacity:0.2;fill:url(#SVGID_1_);}
	.st1{fill:none;}
	.st2{opacity:0.2;fill:url(#SVGID_2_);}
	.st3{fill:url(#SVGID_3_);}
	.st4{fill:url(#SVGID_4_);}
	.st5{fill:url(#SVGID_5_);}
	.st6{fill:url(#SVGID_6_);}
	.st7{fill:url(#SVGID_7_);}
</style>
<linearGradient id="SVGID_1_" gradientUnits="userSpaceOnUse" x1="337.9001" y1="56.8" x2="370.3" y2="56.8">
	<stop  offset="0" style="stop-color:#FFFFFF;stop-opacity:0.1"/>
	<stop  offset="1" style="stop-color:#FFFFFF;stop-opacity:0.35"/>
</linearGradient>
<polygon class="st0" points="338,49.3 345.5,48.7 353.2,42 363.8,42 370,39.6 370,44.6 367.1,50.1 368.6,50.2 365.1,54.3 370.3,60 
	355.5,73.8 352.1,74 345.9,69.3 345.9,69.3 345.9,65.4 341.9,61 341.9,53.5 337.9,50.1 338,49.3 "/>
<polygon class="st1" points="312,166 312,175.1 322.7,186 320,186 319.4,195 296,195 296,174.3 308.5,161.5 "/>
<linearGradient id="SVGID_2_" gradientUnits="userSpaceOnUse" x1="272" y1="145.9" x2="292" y2="145.9">
	<stop  offset="0" style="stop-color:#FFFFFF;stop-opacity:0.1"/>
	<stop  offset="1" style="stop-color:#FFFFFF;stop-opacity:0.35"/>
</linearGradient>
<polygon class="st2" points="272,145.1 272,138.7 284.5,137.9 292,137.9 292,140.6 291.5,153.9 280.7,153.9 "/>
<polygon class="st1" points="412,339.8 406,345.3 406,361 401,361 401,335.3 412,323.9 "/>
<polygon class="st1" points="395,309.2 395,333.5 384,342.8 384,351.4 380,355.7 380,362.7 375.9,380 362.2,380 343,361.5 
	343,345.5 338,340.6 338,311.7 333,306.7 333,301 304.4,301 285,282.3 285,255 313.7,240 320.8,240 325.6,235 337,235 337,241 
	349.1,241 355,248 355,245 373.8,245 387,260 387,268.3 408.5,289 415.2,289 "/>
<polygon class="st1" points="525.3,322.6 509,322.6 509,319.4 498.7,309 498.7,302.3 510.9,314.5 523.4,314.5 527.6,318.7 "/>
<polygon class="st1" points="533.6,313.8 552,298 550.7,321.3 543.1,324 "/>
<polygon class="st1" points="590.3,219.3 584.8,219.3 582.5,222.5 584.9,226 585,235 574.7,242.7 574.7,244.7 572.6,246 
	569.2,243.3 569.3,236.8 579.8,228.6 579.7,217.3 586.5,209.5 594.5,214.2 "/>
<polygon class="st1" points="654,142.2 654,146.3 612.7,190 614.6,173.6 623.3,162.1 612.7,171.1 593.7,171.1 580.2,185.1 
	584,185.1 584,199.4 562.8,223.8 569.4,228.5 562.3,234.2 556,230.6 556,227.8 548.8,221.6 543,226.5 543,232.7 548,236.7 
	548,249.6 543.5,267.2 528.9,267.2 520.6,269 529,278.4 529,282.2 522.2,293.7 516,286 516,295.3 518.1,298.5 517.5,304.5 
	511.7,304 509.7,296.5 509.5,280.1 495.9,266 491.9,266 476.6,278.7 476.3,282.7 471.2,288.9 462.8,280.8 462.6,271.1 449.2,261 
	433.9,261 439.9,266.8 422.5,284 410.8,284 392,266.1 392,258.2 376.7,242.2 384.1,236 375.5,236 353.3,210.9 348.9,208 
	348.9,212.6 355.2,219.2 355.2,223.9 351.4,225.9 341.3,219 334.3,219 318.2,235 309.7,235 299,224.2 299,219 315,219 315,203.4 
	335.9,187 357.5,187 362.1,169.6 362.1,160.3 359.1,160.3 359.1,148.5 362.1,144.8 350.1,148.3 350.1,181 341,181 341,173 327,173 
	327,145.4 369.2,116 381.8,116 395,129.7 395,133.5 388.5,139.4 380,131.6 380,137.7 392.1,148.9 420.4,127 436.5,127 457.5,107 
	469.5,107 495.2,82 511.1,82 523.6,68.9 529.3,75 537.5,75 537.4,91.5 528.5,101 558.7,101 567.5,110 611.5,110 625.8,124 
	642.1,124 644.4,121 659.9,121 670.2,132.4 "/>
<linearGradient id="SVGID_3_" gradientUnits="userSpaceOnUse" x1="350.1" y1="51.89" x2="350.1" y2="196.89" gradientTransform="matrix(1 0 0 -1 0 431.89)">
	<stop  offset="0" style="stop-color:#FFFFFF;stop-opacity:0.1"/>
	<stop  offset="1" style="stop-color:#FFFFFF;stop-opacity:0.35"/>
</linearGradient>
<polygon class="st3" points="395,309.2 395,333.5 384,342.8 384,351.4 380,355.7 380,362.7 375.9,380 362.2,380 343,361.5 
	343,345.5 338,340.6 338,311.7 333,306.7 333,301 304.4,301 285,282.3 285,255 313.7,240 320.8,240 325.6,235 337,235 337,241 
	349.1,241 355,248 355,245 373.8,245 387,260 387,268.3 408.5,289 415.2,289 "/>
<linearGradient id="SVGID_4_" gradientUnits="userSpaceOnUse" x1="513.15" y1="109.29" x2="513.15" y2="129.59" gradientTransform="matrix(1 0 0 -1 0 431.89)">
	<stop  offset="0" style="stop-color:#FFFFFF;stop-opacity:0.1"/>
	<stop  offset="1" style="stop-color:#FFFFFF;stop-opacity:0.35"/>
</linearGradient>
<polygon class="st4" points="525.3,322.6 509,322.6 509,319.4 498.7,309 498.7,302.3 510.9,314.5 523.4,314.5 527.6,318.7 "/>
<linearGradient id="SVGID_5_" gradientUnits="userSpaceOnUse" x1="542.8" y1="107.89" x2="542.8" y2="133.89" gradientTransform="matrix(1 0 0 -1 0 431.89)">
	<stop  offset="0" style="stop-color:#FFFFFF;stop-opacity:0.1"/>
	<stop  offset="1" style="stop-color:#FFFFFF;stop-opacity:0.35"/>
</linearGradient>
<polygon class="st5" points="533.6,313.8 552,298 550.7,321.3 543.1,324 "/>
<linearGradient id="SVGID_6_" gradientUnits="userSpaceOnUse" x1="581.85" y1="185.89" x2="581.85" y2="222.39" gradientTransform="matrix(1 0 0 -1 0 431.89)">
	<stop  offset="0" style="stop-color:#FFFFFF;stop-opacity:0.1"/>
	<stop  offset="1" style="stop-color:#FFFFFF;stop-opacity:0.35"/>
</linearGradient>
<polygon class="st6" points="590.3,219.3 584.8,219.3 582.5,222.5 584.9,226 585,235 574.7,242.7 574.7,244.7 572.6,246 
	569.2,243.3 569.3,236.8 579.8,228.6 579.7,217.3 586.5,209.5 594.5,214.2 "/>
<linearGradient id="SVGID_7_" gradientUnits="userSpaceOnUse" x1="74.6127" y1="1.1075" x2="74.6127" y2="1.6524" gradientTransform="matrix(670.2 0 0 432.4 -49520.8008 -409.9821)">
	<stop  offset="0" style="stop-color:#FFFFFF;stop-opacity:0.1"/>
	<stop  offset="1" style="stop-color:#FFFFFF;stop-opacity:0.35"/>
</linearGradient>
<polygon class="st7" points="654,142.2 654,146.3 612.7,190 614.6,173.6 623.3,162.1 612.7,171.1 593.7,171.1 580.2,185.1 
	584,185.1 584,199.4 562.8,223.8 569.4,228.5 562.3,234.2 556,230.6 556,227.8 548.8,221.6 543,226.5 543,232.7 548,236.7 
	548,249.6 543.5,267.2 528.9,267.2 520.6,269 529,278.4 529,282.2 522.2,293.7 516,286 516,295.3 518.1,298.5 517.5,304.5 
	511.7,304 509.7,296.5 509.5,280.1 495.9,266 491.9,266 476.6,278.7 476.3,282.7 471.2,288.9 462.8,280.8 462.6,271.1 449.2,261 
	433.9,261 439.9,266.8 422.5,284 410.8,284 392,266.1 392,258.2 376.7,242.2 384.1,236 375.5,236 353.3,210.9 348.9,208 
	348.9,212.6 355.2,219.2 355.2,223.9 351.4,225.9 341.3,219 334.3,219 318.2,235 309.7,235 299,224.2 299,219 315,219 315,203.4 
	335.9,187 357.5,187 362.1,169.6 362.1,160.3 359.1,160.3 359.1,148.5 362.1,144.8 350.1,148.3 350.1,181 341,181 341,173 327,173 
	327,145.4 369.2,116 381.8,116 395,129.7 395,133.5 388.5,139.4 380,131.6 380,137.7 392.1,148.9 420.4,127 436.5,127 457.5,107 
	469.5,107 495.2,82 511.1,82 523.6,68.9 529.3,75 537.5,75 537.4,91.5 528.5,101 558.7,101 567.5,110 611.5,110 625.8,124 
	642.1,124 644.4,121 659.9,121 670.2,132.4 "/>
</svg>
